<?xml version="1.0" encoding="utf-8"?>
<!-- Generator: Adobe Illustrator 27.2.0, SVG Export Plug-In . SVG Version: 6.00 Build 0)  -->
<svg version="1.1" xmlns="http://www.w3.org/2000/svg" xmlns:xlink="http://www.w3.org/1999/xlink" x="0px" y="0px"
	 viewBox="0 0 401.14 124.48" style="enable-background:new 0 0 401.14 124.48;" xml:space="preserve">
<style type="text/css">
	.st0{fill:#FFFFFF;}
	.st1{display:none;}
	.st2{display:inline;}
	.st3{display:inline;fill:#FFFFFF;}
</style>
<g id="Layer_1">
	<g>
		<path class="st0" d="M120.58,9.16v34.13c0,10.51-7.7,16.99-18.94,16.99c-9.65,0-16.27-4.97-16.27-12.03
			c0-3.38,2.52-5.76,6.05-5.76c3.24,0,5.62,2.38,5.62,5.76c0,2.81-1.73,4.97-4.25,5.54c1.58,1.22,3.67,1.87,6.12,1.87
			c6.48,0,9.94-3.96,9.94-10.58V9.16H120.58z"/>
		<path class="st0" d="M151.47,51.35h-14.76l-3.46,8.21h-4.82l17.71-40.32h3.74l17.57,40.32H155L151.47,51.35z M149.96,47.82
			l-5.9-13.75l-5.83,13.75H149.96z"/>
		<path class="st0" d="M204.32,19.24l-17.64,40.32h-3.74l-17.64-40.32h12.53l10.87,25.27l10.87-25.27H204.32z"/>
		<path class="st0" d="M213.68,19.24h11.74v40.32h-11.74V19.24z"/>
		<path class="st0" d="M266.81,56.1v3.46h-30.82V19.24h30.24v3.46h-18.51v14.69h13.9v3.46h-13.9V56.1H266.81z"/>
		<path class="st0" d="M314.84,59.56h-12.38c-0.94-0.58-1.94-2.16-2.45-3.31l-4.03-10.51c-0.29-0.86-0.94-1.73-1.94-2.3h-4.18v16.13
			h-11.74V19.24h18.22c8.86,0,15.55,4.97,15.55,12.1c0,5.54-3.89,9.65-9.58,11.31c3.24,0.72,5.83,2.59,6.91,5.69l2.74,6.84
			C312.68,57.04,313.76,58.84,314.84,59.56z M289.85,39.97h3.6c4.54,0,7.56-3.46,7.56-8.64s-3.02-8.64-7.56-8.64h-3.6V39.97z"/>
	</g>
	<g>
		<path class="st0" d="M57.12,92.84v21.31h-3.17l-3.02-4.03c-3.24,2.95-9.07,4.75-16.06,4.75c-15.05,0-27.15-11.16-27.15-25.99
			c0-14.69,11.81-25.85,27.87-25.85c11.23,0,19.51,5.47,19.51,13.03c0,3.38-2.38,5.76-5.62,5.76c-3.38,0-5.98-2.38-5.98-5.76
			c0-2.74,1.73-4.82,4.25-5.47C45.74,68.94,42.72,68,38.97,68c-12.1,0-19.23,7.63-19.23,21.75c0,12.67,5.98,21.24,15.84,21.24
			c5.4,0,9.07-1.94,10.3-5.47V92.84H57.12z"/>
		<path class="st0" d="M68.7,98.17V73.83h11.74v25.27c0,6.41,3.82,10.44,10.15,10.44c5.98,0,9.58-3.96,9.58-10.44V73.83h3.96v25.71
			c0,9.07-5.83,15.19-16.35,15.19C76.84,114.73,68.7,108.11,68.7,98.17z"/>
		<path class="st0" d="M148.05,77.29h-11.16v36.87h-11.81V77.29h-11.23v-3.46h34.2V77.29z"/>
		<path class="st0" d="M157.91,73.83h11.74v40.32h-11.74V73.83z"/>
		<path class="st0" d="M214.07,110.7v3.46h-30.82V73.83h30.24v3.46h-18.51v14.69h13.9v3.46h-13.9v15.27H214.07z"/>
		<path class="st0" d="M262.1,114.16h-12.38c-0.94-0.58-1.94-2.16-2.45-3.31l-4.03-10.51c-0.29-0.86-0.94-1.73-1.94-2.3h-4.18v16.13
			h-11.74V73.83h18.22c8.86,0,15.55,4.97,15.55,12.1c0,5.54-3.89,9.65-9.58,11.3c3.24,0.72,5.83,2.59,6.91,5.69l2.74,6.84
			C259.94,111.64,261.02,113.44,262.1,114.16z M237.11,94.57h3.6c4.54,0,7.56-3.46,7.56-8.64c0-5.19-3.02-8.64-7.56-8.64h-3.6V94.57
			z"/>
		<path class="st0" d="M308.75,114.16h-12.38c-0.94-0.58-1.94-2.16-2.45-3.31l-4.03-10.51c-0.29-0.86-0.94-1.73-1.94-2.3h-4.18
			v16.13h-11.74V73.83h18.22c8.86,0,15.55,4.97,15.55,12.1c0,5.54-3.89,9.65-9.58,11.3c3.24,0.72,5.83,2.59,6.91,5.69l2.74,6.84
			C306.59,111.64,307.67,113.44,308.75,114.16z M283.77,94.57h3.6c4.54,0,7.56-3.46,7.56-8.64c0-5.19-3.02-8.64-7.56-8.64h-3.6
			V94.57z"/>
		<path class="st0" d="M349.5,110.7v3.46h-30.82V73.83h30.24v3.46h-18.51v14.69h13.9v3.46h-13.9v15.27H349.5z"/>
		<path class="st0" d="M392.85,74.77l-19.87,35.93h19.8v3.46h-33.84v-0.94l19.8-35.93h-19.01v-3.46h33.12V74.77z"/>
	</g>
</g>
<g id="Layer_3" class="st1">
	<g class="st2">
		<path class="st0" d="M51.74-49.08V94.47h266.35V-49.08H51.74z M180.99-28.59C180.84,31.14,132.13,79.86,72.4,80.01l-6.87,0.02
			L65.5,66.28l6.87-0.02c49.87-0.13,90.96-39,94.62-88H65.52v-13.74h115.5L180.99-28.59z M304.32-21.61H202.85
			c3.49,46.72,41.01,84.24,87.73,87.73V29.13h-43.68V15.39h57.42v64.76l-6.89-0.02C237.71,79.98,189,31.26,188.85-28.46l-0.02-6.89
			h115.5V-21.61z"/>
	</g>
	<rect x="-463.26" y="130.31" style="display:inline;fill:none;" width="118.86" height="102.65"/>
	
		<text transform="matrix(1 0 0 1 -413.3379 178.3304)" class="st3" style="font-family:'Effra-Bold'; font-size:72px; letter-spacing:3;">j</text>
	<g class="st2">
		<path class="st0" d="M-311.54,282.86l4.18-7.34c1.34,0.82,2.77,1.45,4.28,1.91c1.51,0.46,3.18,0.68,5,0.68
			c2.35,0,4.2-0.62,5.54-1.87c1.34-1.25,2.02-3.12,2.02-5.62c0,0,8.33-32.11,10.3-31.39v30.89c0,5.57-1.54,9.68-4.61,12.35
			c-3.07,2.66-7.27,4-12.6,4C-303.28,286.46-307.98,285.26-311.54,282.86z"/>
	</g>
	<rect x="-290.51" y="239.22" class="st3" width="10.3" height="31.39"/>
	<circle class="st3" cx="-285.36" cy="229.42" r="5.15"/>
	<g class="st2">
		<g>
			<path class="st0" d="M-269.2,288.44c-6.13,0-11.16-1.3-14.95-3.86l-1.15-0.78l5.62-9.89l1.32,0.8c1.23,0.75,2.55,1.34,3.94,1.75
				c1.37,0.41,2.9,0.62,4.57,0.62c1.98,0,3.46-0.48,4.52-1.47c0.96-0.9,1.47-2.24,1.53-4.1c-2.02,1.01-4.4,1.52-7.13,1.52
				c-3.48,0-6.51-0.76-9.02-2.27c-2.52-1.51-4.47-3.65-5.8-6.35c-1.3-2.64-1.95-5.68-1.95-9.01c0-3.91,0.9-7.39,2.66-10.34
				c1.77-2.97,4.26-5.3,7.4-6.93c3.1-1.62,6.77-2.44,10.88-2.44c2.86,0,5.64,0.25,8.27,0.75c2.61,0.49,4.97,1.12,7.01,1.87
				l0.98,0.36v31.94c0,6-1.72,10.53-5.12,13.48C-258.96,286.97-263.53,288.44-269.2,288.44z M-266.9,247.26
				c-2.52,0-4.32,0.71-5.49,2.17c-1.26,1.56-1.87,3.4-1.87,5.61c0,2.06,0.48,3.65,1.46,4.84c0.91,1.11,2.2,1.65,3.95,1.65
				c1.72,0,3.03-0.39,3.89-1.17c0.82-0.73,1.23-1.99,1.23-3.74v-9.04c-0.26-0.07-0.52-0.12-0.78-0.17
				C-265.08,247.31-265.89,247.26-266.9,247.26z"/>
			<path d="M-266.75,237.19c2.78,0,5.45,0.24,7.99,0.72c2.54,0.48,4.8,1.08,6.77,1.8v30.89c0,5.57-1.54,9.68-4.61,12.35
				c-3.07,2.66-7.27,4-12.6,4c-5.86,0-10.56-1.2-14.11-3.6l4.18-7.34c1.34,0.82,2.77,1.45,4.28,1.91c1.51,0.46,3.18,0.68,5,0.68
				c2.35,0,4.2-0.62,5.54-1.87c1.34-1.25,2.02-3.12,2.02-5.62v-2.38c-2.16,1.87-5.04,2.81-8.64,2.81c-3.22,0-5.96-0.68-8.24-2.05
				c-2.28-1.37-4.02-3.28-5.22-5.72c-1.2-2.45-1.8-5.23-1.8-8.35c0-3.65,0.82-6.84,2.45-9.58c1.63-2.74,3.9-4.86,6.8-6.37
				C-274.04,237.95-270.64,237.19-266.75,237.19 M-268.84,263.04c2.11,0,3.74-0.52,4.9-1.55c1.15-1.03,1.73-2.65,1.73-4.86v-10.15
				c-0.67-0.24-1.34-0.42-2.02-0.54c-0.67-0.12-1.56-0.18-2.66-0.18c-2.98,0-5.2,0.91-6.66,2.74c-1.46,1.82-2.2,4.01-2.2,6.55
				c0,2.4,0.6,4.33,1.8,5.8C-272.76,262.31-271.05,263.04-268.84,263.04 M-266.75,234.19c-4.36,0-8.25,0.88-11.57,2.61
				c-3.39,1.76-6.08,4.29-7.99,7.5c-1.9,3.19-2.87,6.93-2.87,11.11c0,3.57,0.71,6.82,2.11,9.67c1.45,2.96,3.6,5.31,6.37,6.98
				c0.09,0.06,0.18,0.11,0.28,0.16l-1.31,2.3l-4.18,7.34l-1.37,2.41l2.3,1.55c4.04,2.73,9.35,4.11,15.79,4.11
				c6.05,0,10.95-1.59,14.57-4.73c3.74-3.25,5.64-8.16,5.64-14.61v-30.89v-2.1l-1.97-0.72c-2.11-0.77-4.55-1.42-7.24-1.93
				C-260.93,234.45-263.8,234.19-266.75,234.19L-266.75,234.19z M-268.84,260.04c-1.68,0-2.37-0.59-2.79-1.1
				c-0.75-0.92-1.12-2.19-1.12-3.9c0-1.86,0.5-3.39,1.53-4.67c0.32-0.4,1.3-1.61,4.32-1.61c0.76,0,1.3,0.03,1.68,0.07v7.8
				c0,0.9-0.13,2.08-0.73,2.62C-266.53,259.78-267.5,260.04-268.84,260.04L-268.84,260.04z M-269.85,275.59
				c-1.52,0-2.91-0.19-4.14-0.56c-1.17-0.35-2.28-0.84-3.33-1.44c1.94,0.63,4.08,0.94,6.39,0.94c1.83,0,3.52-0.21,5.07-0.63
				c-0.14,0.24-0.3,0.45-0.48,0.62C-267.12,275.24-268.27,275.59-269.85,275.59L-269.85,275.59z"/>
		</g>
	</g>
</g>
</svg>
