<?xml version="1.0" encoding="utf-8"?>
<!-- Generator: Adobe Illustrator 27.0.0, SVG Export Plug-In . SVG Version: 6.00 Build 0)  -->
<svg version="1.1" id="Layer_1" xmlns="http://www.w3.org/2000/svg" xmlns:xlink="http://www.w3.org/1999/xlink" x="0px" y="0px"
	 viewBox="0 0 500 500" style="enable-background:new 0 0 500 500;" xml:space="preserve">
<style type="text/css">
	.st0{fill:#FFFFFF;}
</style>
<path d="M350,505H0V150C0,67.16,67.16,0,150,0h350v355C500,437.84,432.84,505,350,505z"/>
<g id="Layer_2_00000013911078722492235690000003611755010974669729_">
	<g>
		<path class="st0" d="M28.04,447.85c16.17-2.02,28.04-10.02,35.63-24c7.59-13.99,11.37-37.98,11.37-72.01V60.23h65.69v291.6
			c0,29.99-3.12,52.81-9.34,68.47c-6.24,15.66-17.27,26.7-33.1,33.1c-15.84,6.4-39.25,9.6-70.24,9.6v-15.15H28.04z"/>
		<g>
			<g>
				<path class="st0" d="M394.13,258.29c-13.48,11.62-20.21,26.37-20.21,44.21v89.96c-19.2,8.76-41.95,13.13-68.22,13.13
					c-34.04,0-61.07-12.55-81.11-37.65c-20.05-25.09-30.07-66.45-30.07-124.07c0-42.78,9.1-78.33,27.29-106.62
					c18.2-28.3,46.15-42.45,83.89-42.45c29.64,0,52.97,7.07,69.99,21.22c17,14.15,28.71,36.57,35.13,67.22h15.16
					c0-16.51-0.76-30.48-2.27-41.95c-1.52-11.44-5.15-20.88-10.87-28.29c-10.11-11.79-25.61-21.56-46.5-29.31
					s-46.16-11.63-75.8-11.63c-32.69,0-61.74,7.5-87.17,22.49c-12.77,7.53-24.07,16.45-33.91,26.78v245.85
					c12.21,13.61,26.53,25.16,42.99,34.63c27.8,16,58.88,24.01,93.24,24.01c26.27,0,50.36-2.71,72.27-8.09
					c21.89-5.38,42.44-13.98,61.65-25.77V301.5c0-32,10.79-48.01,32.35-48.01v-12.63C433.55,240.86,407.6,246.67,394.13,258.29z"/>
			</g>
			<g>
				<path class="st0" d="M394.13,258.29c-13.48,11.62-20.21,26.37-20.21,44.21v89.96c-19.2,8.76-41.95,13.13-68.22,13.13
					c-34.04,0-61.07-12.55-81.11-37.65c-20.05-25.09-30.07-66.45-30.07-124.07c0-42.78,9.1-78.33,27.29-106.62
					c18.2-28.3,46.15-42.45,83.89-42.45c29.64,0,52.97,7.07,69.99,21.22c17,14.15,28.71,36.57,35.13,67.22h15.16
					c0-16.51-0.76-30.48-2.27-41.95c-1.52-11.44-5.15-20.88-10.87-28.29c-10.11-11.79-25.61-21.56-46.5-29.31
					s-46.16-11.63-75.8-11.63c-32.69,0-61.74,7.5-87.17,22.49c-12.77,7.53-24.07,16.45-33.91,26.78v245.85
					c12.21,13.61,26.53,25.16,42.99,34.63c27.8,16,58.88,24.01,93.24,24.01c26.27,0,50.36-2.71,72.27-8.09
					c21.89-5.38,42.44-13.98,61.65-25.77V301.5c0-32,10.79-48.01,32.35-48.01v-12.63C433.55,240.86,407.6,246.67,394.13,258.29z"/>
			</g>
		</g>
		<circle class="st0" cx="320.71" cy="176.98" r="39.05"/>
	</g>
</g>
</svg>
