<?xml version="1.0" encoding="utf-8"?>
<!-- Generator: Adobe Illustrator 27.0.0, SVG Export Plug-In . SVG Version: 6.00 Build 0)  -->
<svg version="1.1" id="Layer_1" xmlns="http://www.w3.org/2000/svg" xmlns:xlink="http://www.w3.org/1999/xlink" x="0px" y="0px"
	 viewBox="0 0 500 500" style="enable-background:new 0 0 500 500;" xml:space="preserve">
<style type="text/css">
	.st0{fill:#004BFF;}
	.st1{fill:#FFFFFF;}
</style>
<path class="st0" d="M350,500H0V148.5C0,66.5,67.2,0,150,0h350v351.5C500,433.5,432.8,500,350,500z"/>
<g id="Layer_2_00000013911078722492235690000003611755010974669729_">
	<g>
		<path class="st1" d="M49.2,432.6c14.9-1.8,25.7-9.2,32.7-22s10.5-34.9,10.5-66.1V76.7h60.3v267.7c0,27.5-2.8,48.5-8.5,62.9
			c-5.7,14.4-15.9,24.5-30.4,30.4s-36.1,8.8-64.4,8.8L49.2,432.6L49.2,432.6L49.2,432.6z"/>
		<g>
			<g>
				<path class="st1" d="M385.3,258.6c-12.4,10.6-18.5,24.2-18.5,40.6v82.6c-17.6,8.1-38.6,12-62.6,12c-31.2,0-56.1-11.5-74.4-34.5
					c-18.5-23-27.6-61-27.6-113.9c0-39.3,8.4-71.9,25.1-97.9s42.3-38.9,77-38.9c27.2,0,48.7,6.5,64.3,19.5
					c15.6,12.9,26.3,33.6,32.2,61.7h14c0-15.1-0.7-28-2.1-38.5c-1.4-10.5-4.7-19.2-10-26c-9.3-10.8-23.5-19.8-42.7-26.9
					c-19.2-7.1-42.4-10.6-69.6-10.6c-30,0-56.6,6.9-80,20.7c-11.8,6.9-22.1,15.1-31.1,24.6v225.7c11.2,12.5,24.3,23.1,39.5,31.8
					c25.5,14.7,54.1,22,85.6,22c24.1,0,46.3-2.5,66.4-7.4c20.1-5,38.9-12.9,56.5-23.7v-83.1c0-29.4,9.9-44.1,29.7-44.1v-11.6
					C421.4,242.6,397.7,247.9,385.3,258.6z"/>
			</g>
			<g>
				<path class="st1" d="M385.3,258.6c-12.4,10.6-18.5,24.2-18.5,40.6v82.6c-17.6,8.1-38.6,12-62.6,12c-31.2,0-56.1-11.5-74.4-34.5
					c-18.5-23-27.6-61-27.6-113.9c0-39.3,8.4-71.9,25.1-97.9s42.3-38.9,77-38.9c27.2,0,48.7,6.5,64.3,19.5
					c15.6,12.9,26.3,33.6,32.2,61.7h14c0-15.1-0.7-28-2.1-38.5c-1.4-10.5-4.7-19.2-10-26c-9.3-10.8-23.5-19.8-42.7-26.9
					c-19.2-7.1-42.4-10.6-69.6-10.6c-30,0-56.6,6.9-80,20.7c-11.8,6.9-22.1,15.1-31.1,24.6v225.7c11.2,12.5,24.3,23.1,39.5,31.8
					c25.5,14.7,54.1,22,85.6,22c24.1,0,46.3-2.5,66.4-7.4c20.1-5,38.9-12.9,56.5-23.7v-83.1c0-29.4,9.9-44.1,29.7-44.1v-11.6
					C421.4,242.6,397.7,247.9,385.3,258.6z"/>
			</g>
		</g>
		<circle class="st1" cx="317.9" cy="183.9" r="35.8"/>
	</g>
</g>
</svg>
