<?xml version="1.0" encoding="utf-8"?>
<!-- Generator: Adobe Illustrator 27.0.0, SVG Export Plug-In . SVG Version: 6.00 Build 0)  -->
<svg version="1.1" id="Layer_1" xmlns="http://www.w3.org/2000/svg" xmlns:xlink="http://www.w3.org/1999/xlink" x="0px" y="0px"
	 viewBox="0 0 500 500" style="enable-background:new 0 0 500 500;" xml:space="preserve">
<style type="text/css">
	.st0{fill:#004BFF;}
	.st1{fill:#E8ECFF;}
</style>
<path class="st0" d="M350,505H0V150C0,67.2,67.2,0,150,0h350v355C500,437.8,432.8,505,350,505z"/>
<g id="Layer_2_00000013911078722492235690000003611755010974669729_">
	<g>
		<path class="st1" d="M28,447.9c16.2-2,28-10,35.6-24c7.6-14,11.4-38,11.4-72V60.2h65.7v291.6c0,30-3.1,52.8-9.3,68.5
			c-6.2,15.7-17.3,26.7-33.1,33.1C82.5,459.8,59,463,28.1,463L28,447.9L28,447.9L28,447.9z"/>
		<g>
			<g>
				<path class="st1" d="M394.1,258.3c-13.5,11.6-20.2,26.4-20.2,44.2v90c-19.2,8.8-42,13.1-68.2,13.1c-34,0-61.1-12.5-81.1-37.6
					c-20.1-25.1-30.1-66.5-30.1-124.1c0-42.8,9.1-78.3,27.3-106.6c18.2-28.3,46.1-42.4,83.9-42.4c29.6,0,53,7.1,70,21.2
					c17,14.1,28.7,36.6,35.1,67.2H426c0-16.5-0.8-30.5-2.3-41.9c-1.5-11.4-5.1-20.9-10.9-28.3c-10.1-11.8-25.6-21.6-46.5-29.3
					s-46.2-11.6-75.8-11.6c-32.7,0-61.7,7.5-87.2,22.5c-12.8,7.5-24.1,16.5-33.9,26.8v245.9c12.2,13.6,26.5,25.2,43,34.6
					c27.8,16,58.9,24,93.2,24c26.3,0,50.4-2.7,72.3-8.1c21.9-5.4,42.4-14,61.6-25.8v-90.5c0-32,10.8-48,32.4-48v-12.6
					C433.5,240.9,407.6,246.7,394.1,258.3z"/>
			</g>
			<g>
				<path class="st1" d="M394.1,258.3c-13.5,11.6-20.2,26.4-20.2,44.2v90c-19.2,8.8-42,13.1-68.2,13.1c-34,0-61.1-12.5-81.1-37.6
					c-20.1-25.1-30.1-66.5-30.1-124.1c0-42.8,9.1-78.3,27.3-106.6c18.2-28.3,46.1-42.4,83.9-42.4c29.6,0,53,7.1,70,21.2
					c17,14.1,28.7,36.6,35.1,67.2H426c0-16.5-0.8-30.5-2.3-41.9c-1.5-11.4-5.1-20.9-10.9-28.3c-10.1-11.8-25.6-21.6-46.5-29.3
					s-46.2-11.6-75.8-11.6c-32.7,0-61.7,7.5-87.2,22.5c-12.8,7.5-24.1,16.5-33.9,26.8v245.9c12.2,13.6,26.5,25.2,43,34.6
					c27.8,16,58.9,24,93.2,24c26.3,0,50.4-2.7,72.3-8.1c21.9-5.4,42.4-14,61.6-25.8v-90.5c0-32,10.8-48,32.4-48v-12.6
					C433.5,240.9,407.6,246.7,394.1,258.3z"/>
			</g>
		</g>
		<circle class="st1" cx="320.7" cy="177" r="39"/>
	</g>
</g>
</svg>
